<svg height="100%" version="1.1" width="100%" xmlns="http://www.w3.org/2000/svg" preserveAspectRatio="xMidYMid meet" viewBox="0 0 600 442" xmlns:xlink="http://www.w3.org/1999/xlink"><desc>Created with Snap</desc><defs/><g id="root" contentwidth="480.00000000000006" contentheight="228.16000000000003">
          <rect class="background" height="2000%" width="2000%" y="-1000%" x="-1000%" style="" fill="#ffffff"/>
          <rect class="watermarklayer" height="100%" width="100%" y="0" x="0" style="" fill="none"/>
          <g class="content" id="content" transform="matrix(0.6165,0,0,0.6165,55.0681,245.1696)">
            <g class="icon" style="mask: url(#mask);">
            <svg height="370.09453333333335" version="1.1" width="363.2547368421052" xmlns="http://www.w3.org/2000/svg" x="215.6726315789474" y="-224.25243462375974"><desc>Created with Snap</desc><defs/><svg viewBox="179 126.5 242 190" version="1.1" xmlns="http://www.w3.org/2000/svg" xmlns:xlink="http://www.w3.org/1999/xlink">
    <title>2</title>
    <g id="2" stroke="none" stroke-width="1" fill="none" fill-rule="evenodd">
        <path d="M389.707496,137.136647 C412.118605,161.169619 390.011499,218.209143 340.329893,264.537991 C290.648287,310.866838 232.205595,328.941216 209.794486,304.908244 C187.383377,280.875272 209.490483,223.835747 259.172089,177.5069 C308.853695,131.178053 367.296387,113.103675 389.707496,137.136647 Z M384.58802,141.910636 C365.757944,121.717851 311.152786,138.605407 263.946077,182.626376 C216.739368,226.647345 196.083886,279.941471 214.913962,300.134255 C233.744038,320.32704 288.349196,303.439483 335.555905,259.418515 C382.762614,215.397546 403.418096,162.10342 384.58802,141.910636 Z M421,133 L421,138 L414.5,138 L414.5,144.5 L409.5,144.5 L409.5,138 L414.5,138 L414.5,133 L421,133 Z M414.5,126.5 L414.5,133 L409.5,133 L409.5,138 L403,138 L403,133 L409.5,133 L409.5,126.5 L414.5,126.5 Z M197,303 L197,308 L190.5,308 L190.5,314.5 L185.5,314.5 L185.5,308 L190.5,308 L190.5,303 L197,303 Z M190.5,296.5 L190.5,303 L185.5,303 L185.5,308 L179,308 L179,303 L185.5,303 L185.5,296.5 L190.5,296.5 Z" id="形状结合" fill="#ff6600" fill-rule="nonzero" style=""/>
    </g>
<desc>Created with Snap</desc><defs/></svg></svg></g>
            <g id="icon_name_and_slogan_gap">
            </g>
            <g class="name_and_slogan" id="name_and_slogan_id">
              <g class="name"><g id="nameDefaultGroup"><path d="M119.4 -80.9531578179531C119.4 -80.9531578179531 117.1 -66.53530540120406 117.1 -66.53530540120406C117.1 -66.53530540120406 114.8 -52.039122050198785 114.8 -52.039122050198785C114.8 -52.039122050198785 112.4 -37.55830072016798 112.4 -37.55830072016798C112.4 -37.55830072016798 110.1 -22.902126336513767 110.1 -22.902126336513767C110.1 -22.902126336513767 107.8 -8.165788141956646 107.8 -8.165788141956646C107.8 -8.165788141956646 100.1 -8.431314870362208 100.1 -8.431314870362208C100.1 -8.431314870362208 92.4 -8.69931021533192 92.4 -8.69931021533192C92.4 -8.69931021533192 84.8 -8.965952781062889 84.8 -8.965952781062889C84.8 -8.965952781062889 77.1 -9.237963163345455 77.1 -9.237963163345455C77.1 -9.237963163345455 69.4 -9.511547845040418 69.4 -9.511547845040418C69.4 -9.511547845040418 71.3 -21.382072906129665 71.3 -21.382072906129665C71.3 -21.382072906129665 73.2 -33.289657387549504 73.2 -33.289657387549504C73.2 -33.289657387549504 75.2 -45.04321081541187 75.2 -45.04321081541187C75.2 -45.04321081541187 77.1 -56.84028350070429 77.1 -56.84028350070429C77.1 -56.84028350070429 79 -68.49207798354117 79 -68.49207798354117C79 -68.49207798354117 74.4 -68.98481704321863 74.4 -68.98481704321863C74.4 -68.98481704321863 69.8 -69.48021275201727 69.8 -69.48021275201727C69.8 -69.48021275201727 65.2 -69.9780913990224 65.2 -69.9780913990224C65.2 -69.9780913990224 60.6 -70.4782785923312 60.6 -70.4782785923312C60.6 -70.4782785923312 56 -70.9805993230949 56 -70.9805993230949C56 -70.9805993230949 54.1 -59.00016518081901 54.1 -59.00016518081901C54.1 -59.00016518081901 52.2 -46.870170903148264 52.2 -46.870170903148264C52.2 -46.870170903148264 50.2 -34.78472563370808 50.2 -34.78472563370808C50.2 -34.78472563370808 48.3 -22.54090881257634 48.3 -22.54090881257634C48.3 -22.54090881257634 46.4 -10.335192545559373 46.4 -10.335192545559373C46.4 -10.335192545559373 38.7 -10.612121469014681 38.7 -10.612121469014681C38.7 -10.612121469014681 31 -10.889165934484147 31 -10.889165934484147C31 -10.889165934484147 23.4 -11.16244859168527 23.4 -11.16244859168527C23.4 -11.16244859168527 15.7 -11.43888398463178 15.7 -11.43888398463178C15.7 -11.43888398463178 8 -11.71459848845437 8 -11.71459848845437C8 -11.71459848845437 10.3 -27.242461709942717 10.3 -27.242461709942717C10.3 -27.242461709942717 12.6 -42.587066339543085 12.6 -42.587066339543085C12.6 -42.587066339543085 15 -57.936767340076514 15 -57.936767340076514C15 -57.936767340076514 17.3 -73.11125032985852 17.3 -73.11125032985852C17.3 -73.11125032985852 19.6 -88.29964343048576 19.6 -88.29964343048576C19.6 -88.29964343048576 18.4 -89.52892762435458 18.4 -89.52892762435458C18.4 -89.52892762435458 17.3 -90.74832382080794 17.3 -90.74832382080794C17.3 -90.74832382080794 16.1 -92.08182291366842 16.1 -92.08182291366842C16.1 -92.08182291366842 15 -93.30717414466022 15 -93.30717414466022C15 -93.30717414466022 13.8 -94.54877674930373 13.8 -94.54877674930373C13.8 -94.54877674930373 34.9 -91.72917502309043 34.9 -91.72917502309043C34.9 -91.72917502309043 56 -88.94086573173166 56 -88.94086573173166C56 -88.94086573173166 77.2 -86.19135164661226 77.2 -86.19135164661226C77.2 -86.19135164661226 98.3 -83.52664489441331 98.3 -83.52664489441331C98.3 -83.52664489441331 119.4 -80.9531578179531 119.4 -80.9531578179531M199.4 12.809494291643027C199.4 12.809494291643027 200.2 9.165834169371312 200.2 9.165834169371312C200.2 9.165834169371312 200.9 5.605584161125645 200.9 5.605584161125645C200.9 5.605584161125645 201.7 1.972969424879011 201.7 1.972969424879011C201.7 1.972969424879011 202.4 -1.5771079340744052 202.4 -1.5771079340744052C202.4 -1.5771079340744052 203.2 -5.19878786763482 203.2 -5.19878786763482C203.2 -5.19878786763482 190.9 -5.5379765858705525 190.9 -5.5379765858705525C190.9 -5.5379765858705525 178.6 -5.892194790600655 178.6 -5.892194790600655C178.6 -5.892194790600655 166.4 -6.257283916525303 166.4 -6.257283916525303C166.4 -6.257283916525303 154.1 -6.638093169229585 154.1 -6.638093169229585C154.1 -6.638093169229585 141.8 -7.030515531933446 141.8 -7.030515531933446C141.8 -7.030515531933446 144.1 -21.198264170841455 144.1 -21.198264170841455C144.1 -21.198264170841455 146.4 -35.29237116035043 146.4 -35.29237116035043C146.4 -35.29237116035043 148.6 -49.23768833091755 148.6 -49.23768833091755C148.6 -49.23768833091755 150.9 -63.188465353685345 150.9 -63.188465353685345C150.9 -63.188465353685345 153.2 -77.06780380914405 153.2 -77.06780380914405C153.2 -77.06780380914405 173.2 -74.9318287738197 173.2 -74.9318287738197C173.2 -74.9318287738197 193.2 -72.93469036458674 193.2 -72.93469036458674C193.2 -72.93469036458674 213.2 -71.08967071865894 213.2 -71.08967071865894C213.2 -71.08967071865894 233.2 -69.40906241239678 233.2 -69.40906241239678C233.2 -69.40906241239678 253.2 -67.90408107395061 253.2 -67.90408107395061C253.2 -67.90408107395061 250.1 -50.97099742861312 250.1 -50.97099742861312C250.1 -50.97099742861312 247 -33.95721037149606 247 -33.95721037149606C247 -33.95721037149606 244 -16.85690161292296 244 -16.85690161292296C244 -16.85690161292296 240.9 0.32458357063510235 240.9 0.32458357063510235C240.9 0.32458357063510235 237.8 17.59434248784357 237.8 17.59434248784357C237.3 20.583700251805315 235.5 23.038760338115637 232.6 24.96498481360625C229.7 26.901077541830592 226.3 27.920715027776275 222.4 27.939443312332315C222.4 27.939443312332315 209.8 28.003717852120854 209.8 28.003717852120854C209.8 28.003717852120854 191.3 28.108815618669848 191.3 28.108815618669848C191.3 28.108815618669848 172.9 28.226465675309086 172.9 28.226465675309086C172.9 28.226465675309086 154.4 28.35839401792934 154.4 28.35839401792934C154.4 28.35839401792934 136 28.50351467401937 136 28.50351467401937C136 28.50351467401937 136.8 23.90819936429277 136.8 23.90819936429277C136.8 23.90819936429277 137.5 19.405997164107468 137.5 19.405997164107468C137.5 19.405997164107468 138.3 14.826921945865429 138.3 14.826921945865429C138.3 14.826921945865429 139 10.339725033137807 139 10.339725033137807C139 10.339725033137807 139.8 5.776792266278029 139.8 5.776792266278029C139.8 5.776792266278029 141.4 7.073182798413438 141.4 7.073182798413438C141.4 7.073182798413438 142.9 8.363408264441503 142.9 8.363408264441503C142.9 8.363408264441503 144.5 9.73484281699583 144.5 9.73484281699583C144.5 9.73484281699583 146 11.01608422987331 146 11.01608422987331C146 11.01608422987331 147.6 12.294055293719964 147.6 12.294055293719964C147.6 12.294055293719964 158 12.401269726918827 158 12.401269726918827C158 12.401269726918827 168.3 12.505955145533836 168.3 12.505955145533836C168.3 12.505955145533836 178.7 12.609792335002354 178.7 12.609792335002354C178.7 12.609792335002354 189 12.710437198936273 189 12.710437198936273C189 12.710437198936273 199.4 12.809494291643027 199.4 12.809494291643027M189.8 -57.864068096792664C189.8 -57.864068096792664 188.4 -50.58914830289007 188.4 -50.58914830289007C188.4 -50.58914830289007 186.9 -43.38074145382416 186.9 -43.38074145382416C186.9 -43.38074145382416 185.5 -36.06368935662027 185.5 -36.06368935662027C185.5 -36.06368935662027 184 -28.811565583380457 184 -28.811565583380457C184 -28.811565583380457 182.6 -21.4516382423504 182.6 -21.4516382423504C182.6 -21.4516382423504 187.1 -21.24916448150219 187.1 -21.24916448150219C187.1 -21.24916448150219 191.6 -21.049930258658236 191.6 -21.049930258658236C191.6 -21.049930258658236 196.2 -20.849695560290627 196.2 -20.849695560290627C196.2 -20.849695560290627 200.7 -20.657242051952423 200.7 -20.657242051952423C200.7 -20.657242051952423 205.2 -20.468252971546384 205.2 -20.468252971546384C205.2 -20.468252971546384 206.7 -27.66212197278182 206.7 -27.66212197278182C206.7 -27.66212197278182 208.2 -34.756668234984275 208.2 -34.756668234984275C208.2 -34.756668234984275 209.8 -41.903590367918014 209.8 -41.903590367918014C209.8 -41.903590367918014 211.3 -48.957363717776346 211.3 -48.957363717776346C211.3 -48.957363717776346 212.8 -56.06987724827047 212.8 -56.06987724827047C212.8 -56.06987724827047 208.2 -56.414717956214844 208.2 -56.414717956214844C208.2 -56.414717956214844 203.6 -56.76668538405275 203.6 -56.76668538405275C203.6 -56.76668538405275 199 -57.12565275069325 199 -57.12565275069325C199 -57.12565275069325 194.4 -57.49149084876953 194.4 -57.49149084876953C194.4 -57.49149084876953 189.8 -57.864068096792664 189.8 -57.864068096792664M325.6 -93.49812319412288C325.6 -93.49812319412288 324.5 -87.54938008978567 324.5 -87.54938008978567C324.5 -87.54938008978567 323.4 -81.71476743377283 323.4 -81.71476743377283C323.4 -81.71476743377283 322.2 -75.95601238184744 322.2 -75.95601238184744C322.2 -75.95601238184744 321.1 -70.11574354555803 321.1 -70.11574354555803C321.1 -70.11574354555803 320 -64.27071107942312 320 -64.27071107942312C320 -64.27071107942312 332.3 -63.850385130697916 332.3 -63.850385130697916C332.3 -63.850385130697916 344.6 -63.510591619058545 344.6 -63.510591619058545C344.6 -63.510591619058545 356.8 -63.253964494085665 356.8 -63.253964494085665C356.8 -63.253964494085665 369.1 -63.07694978769993 369.1 -63.07694978769993C369.1 -63.07694978769993 381.4 -62.982432808927456 381.4 -62.982432808927456C381.4 -62.982432808927456 379.5 -52.81882816564895 379.5 -52.81882816564895C379.5 -52.81882816564895 377.6 -42.65457132462039 377.6 -42.65457132462039C377.6 -42.65457132462039 375.6 -32.48944925211841 375.6 -32.48944925211841C375.6 -32.48944925211841 373.7 -22.321766086847987 373.7 -22.321766086847987C373.7 -22.321766086847987 371.8 -12.151317572972609 371.8 -12.151317572972609C370.7 -9.35964930775863 368.9 -7.072161823170447 366.2 -5.290048880789897C363.5 -3.507846409234503 360.3 -2.589288990238984 356.4 -2.6091398186909913C356.4 -2.6091398186909913 343.8 -2.6901805594634567 343.8 -2.6901805594634567C343.8 -2.6901805594634567 325.3 -2.8554278308875 325.3 -2.8554278308875C325.3 -2.8554278308875 306.9 -3.0732183195785225 306.9 -3.0732183195785225C306.9 -3.0732183195785225 288.4 -3.3442514005900676 288.4 -3.3442514005900676C288.4 -3.3442514005900676 270 -3.6635598316761673 270 -3.6635598316761673C270 -3.6635598316761673 273.4 -21.358329636600907 273.4 -21.358329636600907C273.4 -21.358329636600907 276.9 -38.969494645085035 276.9 -38.969494645085035C276.9 -38.969494645085035 280.3 -56.507687833763725 280.3 -56.507687833763725C280.3 -56.507687833763725 283.8 -73.96722642982556 283.8 -73.96722642982556C283.8 -73.96722642982556 287.2 -91.39984030046517 287.2 -91.39984030046517C287.2 -91.39984030046517 286.4 -92.36116449306479 286.4 -92.36116449306479C286.4 -92.36116449306479 285.7 -93.24108601604539 285.7 -93.24108601604539C285.7 -93.24108601604539 284.9 -94.20478597560086 284.9 -94.20478597560086C284.9 -94.20478597560086 284.2 -95.08683283085793 284.2 -95.08683283085793C284.2 -95.08683283085793 283.4 -96.05293924302052 283.4 -96.05293924302052C283.4 -96.05293924302052 291.8 -95.44759071910718 291.8 -95.44759071910718C291.8 -95.44759071910718 300.3 -94.88338934877322 300.3 -94.88338934877322C300.3 -94.88338934877322 308.7 -94.37425727287737 308.7 -94.37425727287737C308.7 -94.37425727287737 317.2 -93.90867232192664 317.2 -93.90867232192664C317.2 -93.90867232192664 325.6 -93.49812319412288 325.6 -93.49812319412288M318 -50.376310592207474C318 -50.376310592207474 316.7 -43.72078349792599 316.7 -43.72078349792599C316.7 -43.72078349792599 315.4 -37.05816539391796 315.4 -37.05816539391796C315.4 -37.05816539391796 314 -30.390731906863834 314 -30.390731906863834C314 -30.390731906863834 312.7 -23.71304611779955 312.7 -23.71304611779955C312.7 -23.71304611779955 311.4 -17.027647134695144 311.4 -17.027647134695144C311.4 -17.027647134695144 316 -16.9416460096281 316 -16.9416460096281C316 -16.9416460096281 320.5 -16.862403547557484 320.5 -16.862403547557484C320.5 -16.862403547557484 325.1 -16.786430877479717 325.1 -16.786430877479717C325.1 -16.786430877479717 329.6 -16.71706125541816 329.6 -16.71706125541816C329.6 -16.71706125541816 334.2 -16.651240536201918 334.2 -16.651240536201918C334.2 -16.651240536201918 335.6 -23.280933139797646 335.6 -23.280933139797646C335.6 -23.280933139797646 336.9 -29.906704756353975 336.9 -29.906704756353975C336.9 -29.906704756353975 338.3 -36.525479890673765 338.3 -36.525479890673765C338.3 -36.525479890673765 339.6 -43.141127603133896 339.6 -43.141127603133896C339.6 -43.141127603133896 341 -49.749904532751614 341 -49.749904532751614C341 -49.749904532751614 336.4 -49.85626194101522 336.4 -49.85626194101522C336.4 -49.85626194101522 331.8 -49.972125278602206 331.8 -49.972125278602206C331.8 -49.972125278602206 327.2 -50.09745223832772 327.2 -50.09745223832772C327.2 -50.09745223832772 322.6 -50.23219706849484 322.6 -50.23219706849484C322.6 -50.23219706849484 318 -50.376310592207474 318 -50.376310592207474M465.4 -50.53662155914057C465.4 -50.53662155914057 461.3 -50.399058959697285 461.3 -50.399058959697285C461.3 -50.399058959697285 457.2 -50.26889075154648 457.2 -50.26889075154648C457.2 -50.26889075154648 453.2 -50.1490595175201 453.2 -50.1490595175201C453.2 -50.1490595175201 449.1 -50.03360858466726 449.1 -50.03360858466726C449.1 -50.03360858466726 445 -49.92565798983202 445 -49.92565798983202C445 -49.92565798983202 444.6 -48.83091373859541 444.6 -48.83091373859541C444.6 -48.83091373859541 444.3 -47.73897196279967 444.3 -47.73897196279967C444.3 -47.73897196279967 443.9 -46.57261795541608 443.9 -46.57261795541608C443.9 -46.57261795541608 443.6 -45.48125469838456 443.6 -45.48125469838456C443.6 -45.48125469838456 443.2 -44.38787082195765 443.2 -44.38787082195765C443.2 -44.38787082195765 435.5 -44.224934577235445 435.5 -44.224934577235445C435.5 -44.224934577235445 427.8 -44.08677816824206 427.8 -44.08677816824206C427.8 -44.08677816824206 420.2 -43.974855264322315 420.2 -43.974855264322315C420.2 -43.974855264322315 412.5 -43.88633697088191 412.5 -43.88633697088191C412.5 -43.88633697088191 404.8 -43.82294998730292 404.8 -43.82294998730292C404.8 -43.82294998730292 406 -47.70193882830377 406 -47.70193882830377C406 -47.70193882830377 407.1 -51.510017920220065 407.1 -51.510017920220065C407.1 -51.510017920220065 408.3 -55.39225156791542 408.3 -55.39225156791542C408.3 -55.39225156791542 409.4 -59.20355314977027 409.4 -59.20355314977027C409.4 -59.20355314977027 410.6 -63.08942652670706 410.6 -63.08942652670706C410.6 -63.08942652670706 429.4 -63.4043871280999 429.4 -63.4043871280999C429.4 -63.4043871280999 448.2 -63.910078826673285 448.2 -63.910078826673285C448.2 -63.910078826673285 467 -64.6035011972474 467 -64.6035011972474C467 -64.6035011972474 485.8 -65.48054222373207 485.8 -65.48054222373207C485.8 -65.48054222373207 504.6 -66.53600479378457 504.6 -66.53600479378457C504.6 -66.53600479378457 502.3 -55.227705670302186 502.3 -55.227705670302186C502.3 -55.227705670302186 500 -44.03026385239242 500 -44.03026385239242C500 -44.03026385239242 497.6 -32.79029660597011 497.6 -32.79029660597011C497.6 -32.79029660597011 495.3 -21.66338194395626 495.3 -21.66338194395626C495.3 -21.66338194395626 493 -10.495778868287609 493 -10.495778868287609C493 -10.495778868287609 494.6 -9.121528345296923 494.6 -9.121528345296923C494.6 -9.121528345296923 496.1 -7.742945893631202 496.1 -7.742945893631202C496.1 -7.742945893631202 497.7 -6.2897158778349365 497.7 -6.2897158778349365C497.7 -6.2897158778349365 499.2 -4.9063328024144255 499.2 -4.9063328024144255C499.2 -4.9063328024144255 500.8 -3.5222893168688714 500.8 -3.5222893168688714C500.8 -3.5222893168688714 482.8 -3.2296972896476603 482.8 -3.2296972896476603C482.8 -3.2296972896476603 464.7 -2.9841793513181187 464.7 -2.9841793513181187C464.7 -2.9841793513181187 446.7 -2.790218964067016 446.7 -2.790218964067016C446.7 -2.790218964067016 428.6 -2.6470856811032633 428.6 -2.6470856811032633C428.6 -2.6470856811032633 410.6 -2.5574032149417647 410.6 -2.5574032149417647C406.7 -2.544965100573755 403.8 -3.4689871023998506 401.9 -5.2559309996910315C400 -7.042989838257469 399 -9.33346501319069 399 -12.12738725820634C399 -12.12738725820634 400.2 -14.064581365774345 400.2 -14.064581365774345C400.2 -14.064581365774345 401.3 -20.157855344592306 401.3 -20.157855344592306C401.3 -20.157855344592306 402.5 -26.18123606511066 402.5 -26.18123606511066C402.5 -26.18123606511066 403.6 -32.27743203443249 403.6 -32.27743203443249C403.6 -32.27743203443249 404.8 -38.375869226454256 404.8 -38.375869226454256C404.8 -38.375869226454256 416.3 -38.47140336851655 416.3 -38.47140336851655C416.3 -38.47140336851655 427.8 -38.618367088439996 427.8 -38.618367088439996C427.8 -38.618367088439996 439.4 -38.81835955309782 439.4 -38.81835955309782C439.4 -38.81835955309782 450.9 -39.067463075380445 450.9 -39.067463075380445C450.9 -39.067463075380445 462.4 -39.36659500120125 462.4 -39.36659500120125C462.4 -39.36659500120125 463 -41.568754421393564 463 -41.568754421393564C463 -41.568754421393564 463.6 -43.84509837556337 463.6 -43.84509837556337C463.6 -43.84509837556337 464.2 -46.049941693012414 464.2 -46.049941693012414C464.2 -46.049941693012414 464.8 -48.32903782366216 464.8 -48.32903782366216C464.8 -48.32903782366216 465.4 -50.53662155914057 465.4 -50.53662155914057M439.4 -24.958955192618333C439.4 -24.958955192618333 439 -23.29288936027926 439 -23.29288936027926C439 -23.29288936027926 438.6 -21.62728120641995 438.6 -21.62728120641995C438.6 -21.62728120641995 438.2 -19.88996818240807 438.2 -19.88996818240807C438.2 -19.88996818240807 437.8 -18.22526947048705 437.8 -18.22526947048705C437.8 -18.22526947048705 437.4 -16.56101367447492 437.4 -16.56101367447492C437.4 -16.56101367447492 441.2 -16.60850198384768 441.2 -16.60850198384768C441.2 -16.60850198384768 445.1 -16.66092364783654 445.1 -16.66092364783654C445.1 -16.66092364783654 448.9 -16.71557554652439 448.9 -16.71557554652439C448.9 -16.71557554652439 452.8 -16.775317678630437 452.8 -16.775317678630437C452.8 -16.775317678630437 456.6 -16.837069464659535 456.6 -16.837069464659535C456.6 -16.837069464659535 457 -18.514720209207347 457 -18.514720209207347C457 -18.514720209207347 457.4 -20.192969075413686 457.4 -20.192969075413686C457.4 -20.192969075413686 457.8 -21.944495187444915 457.8 -21.944495187444915C457.8 -21.944495187444915 458.2 -23.62396703978149 458.2 -23.62396703978149C458.2 -23.62396703978149 458.6 -25.30405151571182 458.6 -25.30405151571182C458.6 -25.30405151571182 454.8 -25.22715749409747 454.8 -25.22715749409747C454.8 -25.22715749409747 450.9 -25.152629879631306 450.9 -25.152629879631306C450.9 -25.152629879631306 447.1 -25.084310673470853 447.1 -25.084310673470853C447.1 -25.084310673470853 443.2 -25.018623687325757 443.2 -25.018623687325757C443.2 -25.018623687325757 439.4 -24.958955192618333 439.4 -24.958955192618333M539.2 -77.80540773741532C539.2 -77.80540773741532 538.4 -78.65624527216058 538.4 -78.65624527216058C538.4 -78.65624527216058 537.7 -79.43821844961506 537.7 -79.43821844961506C537.7 -79.43821844961506 536.9 -80.28733199542147 536.9 -80.28733199542147C536.9 -80.28733199542147 536.2 -81.06776388071611 536.2 -81.06776388071611C536.2 -81.06776388071611 535.4 -81.91518744980615 535.4 -81.91518744980615C535.4 -81.91518744980615 543.8 -82.65746016613393 543.8 -82.65746016613393C543.8 -82.65746016613393 552.3 -83.44497687879587 552.3 -83.44497687879587C552.3 -83.44497687879587 560.7 -84.25829559478872 560.7 -84.25829559478872C560.7 -84.25829559478872 569.2 -85.115812853277 569.2 -85.115812853277C569.2 -85.115812853277 577.6 -85.99635904681247 577.6 -85.99635904681247C577.6 -85.99635904681247 577.1 -83.16854266044095 577.1 -83.16854266044095C577.1 -83.16854266044095 576.6 -80.34356651924892 576.6 -80.34356651924892C576.6 -80.34356651924892 576 -77.59081859578964 576 -77.59081859578964C576 -77.59081859578964 575.5 -74.7717499919261 575.5 -74.7717499919261C575.5 -74.7717499919261 575 -71.95549422758288 575 -71.95549422758288C575 -71.95549422758288 579.8 -72.40220354996862 579.8 -72.40220354996862C579.8 -72.40220354996862 584.5 -72.84830006521442 584.5 -72.84830006521442C584.5 -72.84830006521442 589.3 -73.31259479094791 589.3 -73.31259479094791C589.3 -73.31259479094791 594 -73.77557193660492 594 -73.77557193660492C594 -73.77557193660492 598.8 -74.25675449684817 598.8 -74.25675449684817C598.8 -74.25675449684817 598 -71.0989532152273 598 -71.0989532152273C598 -71.0989532152273 597.2 -67.86562818969098 597.2 -67.86562818969098C597.2 -67.86562818969098 596.4 -64.71863787060748 596.4 -64.71863787060748C596.4 -64.71863787060748 595.6 -61.49621395574701 595.6 -61.49621395574701C595.6 -61.49621395574701 594.8 -58.35994431918773 594.8 -58.35994431918773C594.8 -58.35994431918773 590.4 -57.995215374696386 590.4 -57.995215374696386C590.4 -57.995215374696386 585.9 -57.628404445459964 585.9 -57.628404445459964C585.9 -57.628404445459964 581.5 -57.27593438565182 581.5 -57.27593438565182C581.5 -57.27593438565182 577 -56.92190558397979 577 -56.92190558397979C577 -56.92190558397979 572.6 -56.58216878519478 572.6 -56.58216878519478C572.6 -56.58216878519478 571.3 -49.231142333034285 571.3 -49.231142333034285C571.3 -49.231142333034285 570 -41.89880835513415 570 -41.89880835513415C570 -41.89880835513415 568.6 -34.57956346441273 568.6 -34.57956346441273C568.6 -34.57956346441273 567.3 -27.284851161211414 567.3 -27.284851161211414C567.3 -27.284851161211414 566 -20.008339895556766 566 -20.008339895556766C566 -20.008339895556766 569.8 -20.16218221707374 569.8 -20.16218221707374C569.8 -20.16218221707374 573.7 -20.322726597564667 573.7 -20.322726597564667C573.7 -20.322726597564667 577.5 -20.48169636276682 577.5 -20.48169636276682C577.5 -20.48169636276682 581.4 -20.647412527416925 581.4 -20.647412527416925C581.4 -20.647412527416925 585.2 -20.811331961381867 585.2 -20.811331961381867C585.2 -20.811331961381867 584.4 -17.742329711367006 584.4 -17.742329711367006C584.4 -17.742329711367006 583.7 -14.60223337666261 583.7 -14.60223337666261C583.7 -14.60223337666261 582.9 -11.54293540927356 582.9 -11.54293540927356C582.9 -11.54293540927356 582.2 -8.4119822472868 582.2 -8.4119822472868C582.2 -8.4119822472868 581.4 -5.362299529806158 581.4 -5.362299529806158C581.4 -5.362299529806158 573 -5.13444959784006 573 -5.13444959784006C573 -5.13444959784006 564.5 -4.911633083105798 564.5 -4.911633083105798C564.5 -4.911633083105798 556.1 -4.699425170064686 556.1 -4.699425170064686C556.1 -4.699425170064686 547.6 -4.49310076675517 547.6 -4.49310076675517C547.6 -4.49310076675517 539.2 -4.297826095403266 539.2 -4.297826095403266C535.3 -4.210160260141947 532.2 -5.131547891555655 529.8 -6.977192422050706C527.4 -8.816393391892298 526.7 -11.22445464668489 527.6 -14.206783381846734C527.6 -14.206783381846734 528 -18.54334653650279 528 -18.54334653650279C528 -18.54334653650279 529.9 -27.344674957026925 529.9 -27.344674957026925C529.9 -27.344674957026925 531.7 -36.244764467117136 531.7 -36.244764467117136C531.7 -36.244764467117136 533.6 -45.10076918755169 533.6 -45.10076918755169C533.6 -45.10076918755169 535.4 -53.978816064019725 535.4 -53.978816064019725C535.4 -53.978816064019725 532.3 -53.78469747366874 532.3 -53.78469747366874C532.3 -53.78469747366874 529.2 -53.59424717777229 529.2 -53.59424717777229C529.2 -53.59424717777229 526.2 -53.413462671093185 526.2 -53.413462671093185C526.2 -53.413462671093185 523.1 -53.2303215874544 523.1 -53.2303215874544C523.1 -53.2303215874544 520 -53.050940067628105 520 -53.050940067628105C520 -53.050940067628105 520.4 -55.940223451347435 520.4 -55.940223451347435C520.4 -55.940223451347435 520.8 -58.90675683259694 520.8 -58.90675683259694C520.8 -58.90675683259694 521.2 -61.79966413850087 521.2 -61.79966413850087C521.2 -61.79966413850087 521.6 -64.76988169188104 521.6 -64.76988169188104C521.6 -64.76988169188104 522 -67.66644189064534 522 -67.66644189064534C522 -67.66644189064534 525.1 -67.88289625773422 525.1 -67.88289625773422C525.1 -67.88289625773422 528.2 -68.10381752830773 528.2 -68.10381752830773C528.2 -68.10381752830773 531.4 -68.33651299990458 531.4 -68.33651299990458C531.4 -68.33651299990458 534.5 -68.56640199306378 534.5 -68.56640199306378C534.5 -68.56640199306378 537.6 -68.80064803070357 537.6 -68.80064803070357C537.6 -68.80064803070357 537.9 -70.58275134310696 537.9 -70.58275134310696C537.9 -70.58275134310696 538.2 -72.36577611861728 538.2 -72.36577611861728C538.2 -72.36577611861728 538.6 -74.23436727093859 538.6 -74.23436727093859C538.6 -74.23436727093859 538.9 -76.01942299436783 538.9 -76.01942299436783C538.9 -76.01942299436783 539.2 -77.80540773741532 539.2 -77.80540773741532M662 -86.33438571060901C662 -86.33438571060901 654.7 -85.42063735505513 654.7 -85.42063735505513C654.7 -85.42063735505513 647.4 -84.52127692847394 647.4 -84.52127692847394C647.4 -84.52127692847394 640 -83.6250913284504 640 -83.6250913284504C640 -83.6250913284504 632.7 -82.75708771920728 632.7 -82.75708771920728C632.7 -82.75708771920728 625.4 -81.90581307819019 625.4 -81.90581307819019C625.4 -81.90581307819019 625.8 -85.79076707386751 625.8 -85.79076707386751C625.8 -85.79076707386751 626.2 -89.67920319604802 626.2 -89.67920319604802C626.2 -89.67920319604802 626.6 -93.57112746144412 626.6 -93.57112746144412C626.6 -93.57112746144412 627 -97.46654586997974 627 -97.46654586997974C627 -97.46654586997974 627.4 -101.36546440476229 627.4 -101.36546440476229C627.4 -101.36546440476229 635.1 -102.43638658649107 635.1 -102.43638658649107C635.1 -102.43638658649107 642.8 -103.52926062898345 642.8 -103.52926062898345C642.8 -103.52926062898345 650.4 -104.62843627961766 650.4 -104.62843627961766C650.4 -104.62843627961766 658.1 -105.76177449803623 658.1 -105.76177449803623C658.1 -105.76177449803623 665.8 -106.91385058820552 665.8 -106.91385058820552C665.8 -106.91385058820552 665 -102.77742850544959 665 -102.77742850544959C665 -102.77742850544959 664.3 -98.66285447677518 664.3 -98.66285447677518C664.3 -98.66285447677518 663.5 -94.54144167903495 663.5 -94.54144167903495C663.5 -94.54144167903495 662.8 -90.44085696691059 662.8 -90.44085696691059C662.8 -90.44085696691059 662 -86.33438571060901 662 -86.33438571060901M662 -81.28872980961508C662 -81.28872980961508 659.7 -66.35059365770472 659.7 -66.35059365770472C659.7 -66.35059365770472 657.4 -51.492655027173 657.4 -51.492655027173C657.4 -51.492655027173 655 -36.793858397280076 655 -36.793858397280076C655 -36.793858397280076 652.7 -22.09600277625158 652.7 -22.09600277625158C652.7 -22.09600277625158 650.4 -7.476497304467628 650.4 -7.476497304467628C650.4 -7.476497304467628 642.7 -7.222523387582491 642.7 -7.222523387582491C642.7 -7.222523387582491 635 -6.972408228564092 635 -6.972408228564092C635 -6.972408228564092 627.4 -6.729613142791578 627.4 -6.729613142791578C627.4 -6.729613142791578 619.7 -6.488037987078549 619.7 -6.488037987078549C619.7 -6.488037987078549 612 -6.251194374186184 612 -6.251194374186184C612 -6.251194374186184 614.3 -19.340438074022863 614.3 -19.340438074022863C614.3 -19.340438074022863 616.6 -32.41306287463232 616.6 -32.41306287463232C616.6 -32.41306287463232 619 -45.64221041156185 619 -45.64221041156185C619 -45.64221041156185 621.3 -58.8498300307167 621.3 -58.8498300307167C621.3 -58.8498300307167 623.6 -72.208415333963 623.6 -72.208415333963C623.6 -72.208415333963 622.4 -72.99797934814664 622.4 -72.99797934814664C622.4 -72.99797934814664 621.3 -73.79610846218429 621.3 -73.79610846218429C621.3 -73.79610846218429 620.1 -74.66468665814601 620.1 -74.66468665814601C620.1 -74.66468665814601 619 -75.45896571964232 619 -75.45896571964232C619 -75.45896571964232 617.8 -76.24066168634324 617.8 -76.24066168634324C617.8 -76.24066168634324 626.6 -77.20007201713157 626.6 -77.20007201713157C626.6 -77.20007201713157 635.5 -78.194764535998 635.5 -78.194764535998C635.5 -78.194764535998 644.3 -79.20111218375054 644.3 -79.20111218375054C644.3 -79.20111218375054 653.2 -80.24066395849722 653.2 -80.24066395849722C653.2 -80.24066395849722 662 -81.28872980961508 662 -81.28872980961508M742.6 -29.10705289064083C742.6 -29.10705289064083 743 -31.71870218181646 743 -31.71870218181646C743 -31.71870218181646 743.3 -34.32641072432146 743.3 -34.32641072432146C743.3 -34.32641072432146 743.7 -36.846773306196695 743.7 -36.846773306196695C743.7 -36.846773306196695 744 -39.45848814516205 744 -39.45848814516205C744 -39.45848814516205 744.4 -42.07941795049368 744.4 -42.07941795049368C744.4 -42.07941795049368 732.9 -41.236276627671245 732.9 -41.236276627671245C732.9 -41.236276627671245 721.4 -40.3984400788833 721.4 -40.3984400788833C721.4 -40.3984400788833 709.8 -39.56058281595017 709.8 -39.56058281595017C709.8 -39.56058281595017 698.3 -38.73902131552741 698.3 -38.73902131552741C698.3 -38.73902131552741 686.8 -37.9283476565228 686.8 -37.9283476565228C686.8 -37.9283476565228 688.4 -47.37621108619288 688.4 -47.37621108619288C688.4 -47.37621108619288 689.9 -56.760984343671296 689.9 -56.760984343671296C689.9 -56.760984343671296 691.5 -66.27988636904932 691.5 -66.27988636904932C691.5 -66.27988636904932 693 -75.73334535426318 693 -75.73334535426318C693 -75.73334535426318 694.6 -85.32380298072943 694.6 -85.32380298072943C694.6 -85.32380298072943 713 -87.68812204877933 713 -87.68812204877933C713 -87.68812204877933 731.4 -90.09864966973618 731.4 -90.09864966973618C731.4 -90.09864966973618 749.8 -92.54200773955661 749.8 -92.54200773955661C749.8 -92.54200773955661 768.2 -95.0046678091627 768.2 -95.0046678091627C768.2 -95.0046678091627 786.6 -97.47302709141458 786.6 -97.47302709141458C786.6 -97.47302709141458 785.8 -92.32370713631624 785.8 -92.32370713631624C785.8 -92.32370713631624 785.1 -87.29672375796059 785.1 -87.29672375796059C785.1 -87.29672375796059 784.3 -82.16540140940575 784.3 -82.16540140940575C784.3 -82.16540140940575 783.6 -77.15508698598984 783.6 -77.15508698598984C783.6 -77.15508698598984 782.8 -72.04176337127672 782.8 -72.04176337127672C782.8 -72.04176337127672 776.2 -71.34747279235565 776.2 -71.34747279235565C776.2 -71.34747279235565 769.5 -70.64238239897757 769.5 -70.64238239897757C769.5 -70.64238239897757 762.9 -69.94803930444493 762.9 -69.94803930444493C762.9 -69.94803930444493 756.2 -69.24391340845649 756.2 -69.24391340845649C756.2 -69.24391340845649 749.6 -68.55152431805602 749.6 -68.55152431805602C749.6 -68.55152431805602 749.7 -69.62504087873992 749.7 -69.62504087873992C749.7 -69.62504087873992 749.8 -70.69881189616254 749.8 -70.69881189616254C749.8 -70.69881189616254 750 -71.88037331001257 750 -71.88037331001257C750 -71.88037331001257 750.1 -72.95479232501239 750.1 -72.95479232501239C750.1 -72.95479232501239 750.2 -74.02946587794244 750.2 -74.02946587794244C750.2 -74.02946587794244 745.6 -73.51804560193693 745.6 -73.51804560193693C745.6 -73.51804560193693 741 -73.00769943322513 741 -73.00769943322513C741 -73.00769943322513 736.4 -72.4986047411824 736.4 -72.4986047411824C736.4 -72.4986047411824 731.8 -71.99093866085725 731.8 -71.99093866085725C731.8 -71.99093866085725 727.2 -71.4848780295281 727.2 -71.4848780295281C727.2 -71.4848780295281 726.8 -68.9024679080037 726.8 -68.9024679080037C726.8 -68.9024679080037 726.4 -66.32251887143065 726.4 -66.32251887143065C726.4 -66.32251887143065 726 -63.838956931075856 726 -63.838956931075856C726 -63.838956931075856 725.6 -61.263880628876564 725.6 -61.263880628876564C725.6 -61.263880628876564 725.2 -58.69126125684187 725.2 -58.69126125684187C725.2 -58.69126125684187 736.4 -59.753726719673566 736.4 -59.753726719673566C736.4 -59.753726719673566 747.5 -60.81345597879228 747.5 -60.81345597879228C747.5 -60.81345597879228 758.7 -61.88734688882151 758.7 -61.88734688882151C758.7 -61.88734688882151 769.8 -62.95405195723177 769.8 -62.95405195723177C769.8 -62.95405195723177 781 -64.03059810806381 781 -64.03059810806381C781 -64.03059810806381 780.2 -56.23934949056728 780.2 -56.23934949056728C780.2 -56.23934949056728 779.4 -48.46248401946809 779.4 -48.46248401946809C779.4 -48.46248401946809 778.6 -40.8 778.6 -40.8C778.6 -40.8 777.8 -33.05180200345593 777.8 -33.05180200345593C777.8 -33.05180200345593 777 -25.317981183076718 777 -25.317981183076718C776.1 -21.38321115859135 773.9 -18.09790391592483 770.6 -15.479119680730292C767.3 -12.879404153748972 763.7 -11.46756789681072 759.8 -11.327663075176012C759.8 -11.327663075176012 749.1 -10.943124854629367 749.1 -10.943124854629367C749.1 -10.943124854629367 732.6 -10.349571039262607 732.6 -10.349571039262607C732.6 -10.349571039262607 716 -9.754226724375918 716 -9.754226724375918C716 -9.754226724375918 699.5 -9.167147738297018 699.5 -9.167147738297018C699.5 -9.167147738297018 683 -8.587655004271028 683 -8.587655004271028C683 -8.587655004271028 683.8 -13.4363334217254 683.8 -13.4363334217254C683.8 -13.4363334217254 684.5 -18.20027588787351 684.5 -18.20027588787351C684.5 -18.20027588787351 685.3 -23.06681856138323 685.3 -23.06681856138323C685.3 -23.06681856138323 686 -27.847345470570943 686 -27.847345470570943C686 -27.847345470570943 686.8 -32.73182168934489 686.8 -32.73182168934489C686.8 -32.73182168934489 688 -31.462508816263615 688 -31.462508816263615C688 -31.462508816263615 689.1 -30.183370543049456 689.1 -30.183370543049456C689.1 -30.183370543049456 690.3 -28.816715112719116 690.3 -28.816715112719116C690.3 -28.816715112719116 691.4 -27.53036825888902 691.4 -27.53036825888902C691.4 -27.53036825888902 692.6 -26.246133954933526 692.6 -26.246133954933526C692.6 -26.246133954933526 702.6 -26.809078616886957 702.6 -26.809078616886957C702.6 -26.809078616886957 712.6 -27.37762681707742 712.6 -27.37762681707742C712.6 -27.37762681707742 722.6 -27.950794385736017 722.6 -27.950794385736017C722.6 -27.950794385736017 732.6 -28.52759715435689 732.6 -28.52759715435689C732.6 -28.52759715435689 742.6 -29.10705289064083 742.6 -29.10705289064083" style="" fill="#031140" id="namepathdata"/></g></g>
              <g class="slogan"><g id="sloganDefaultGroup"/></g>
            </g>
            <g class="border">
            </g>
          </g>
          <defs id="defs">
            <mask xmlns="http://www.w3.org/2000/svg" id="mask">
                <rect id="showAll" fill="white" x="215.6726315789474" y="-224.25243462375974" width="363.2547368421052" height="370.09453333333335"/>
                <rect id="hideNameBg" fill="black" x="0" y="0" width="0" height="0" stroke-width="2" stroke="black"/>
                <rect id="hideSloganBg" fill="black" x="0" y="0" width="0" height="0" stroke-width="2" stroke="black"/>
            <path d="M119.4 -80.9531578179531C119.4 -80.9531578179531 117.1 -66.53530540120406 117.1 -66.53530540120406C117.1 -66.53530540120406 114.8 -52.039122050198785 114.8 -52.039122050198785C114.8 -52.039122050198785 112.4 -37.55830072016798 112.4 -37.55830072016798C112.4 -37.55830072016798 110.1 -22.902126336513767 110.1 -22.902126336513767C110.1 -22.902126336513767 107.8 -8.165788141956646 107.8 -8.165788141956646C107.8 -8.165788141956646 100.1 -8.431314870362208 100.1 -8.431314870362208C100.1 -8.431314870362208 92.4 -8.69931021533192 92.4 -8.69931021533192C92.4 -8.69931021533192 84.8 -8.965952781062889 84.8 -8.965952781062889C84.8 -8.965952781062889 77.1 -9.237963163345455 77.1 -9.237963163345455C77.1 -9.237963163345455 69.4 -9.511547845040418 69.4 -9.511547845040418C69.4 -9.511547845040418 71.3 -21.382072906129665 71.3 -21.382072906129665C71.3 -21.382072906129665 73.2 -33.289657387549504 73.2 -33.289657387549504C73.2 -33.289657387549504 75.2 -45.04321081541187 75.2 -45.04321081541187C75.2 -45.04321081541187 77.1 -56.84028350070429 77.1 -56.84028350070429C77.1 -56.84028350070429 79 -68.49207798354117 79 -68.49207798354117C79 -68.49207798354117 74.4 -68.98481704321863 74.4 -68.98481704321863C74.4 -68.98481704321863 69.8 -69.48021275201727 69.8 -69.48021275201727C69.8 -69.48021275201727 65.2 -69.9780913990224 65.2 -69.9780913990224C65.2 -69.9780913990224 60.6 -70.4782785923312 60.6 -70.4782785923312C60.6 -70.4782785923312 56 -70.9805993230949 56 -70.9805993230949C56 -70.9805993230949 54.1 -59.00016518081901 54.1 -59.00016518081901C54.1 -59.00016518081901 52.2 -46.870170903148264 52.2 -46.870170903148264C52.2 -46.870170903148264 50.2 -34.78472563370808 50.2 -34.78472563370808C50.2 -34.78472563370808 48.3 -22.54090881257634 48.3 -22.54090881257634C48.3 -22.54090881257634 46.4 -10.335192545559373 46.4 -10.335192545559373C46.4 -10.335192545559373 38.7 -10.612121469014681 38.7 -10.612121469014681C38.7 -10.612121469014681 31 -10.889165934484147 31 -10.889165934484147C31 -10.889165934484147 23.4 -11.16244859168527 23.4 -11.16244859168527C23.4 -11.16244859168527 15.7 -11.43888398463178 15.7 -11.43888398463178C15.7 -11.43888398463178 8 -11.71459848845437 8 -11.71459848845437C8 -11.71459848845437 10.3 -27.242461709942717 10.3 -27.242461709942717C10.3 -27.242461709942717 12.6 -42.587066339543085 12.6 -42.587066339543085C12.6 -42.587066339543085 15 -57.936767340076514 15 -57.936767340076514C15 -57.936767340076514 17.3 -73.11125032985852 17.3 -73.11125032985852C17.3 -73.11125032985852 19.6 -88.29964343048576 19.6 -88.29964343048576C19.6 -88.29964343048576 18.4 -89.52892762435458 18.4 -89.52892762435458C18.4 -89.52892762435458 17.3 -90.74832382080794 17.3 -90.74832382080794C17.3 -90.74832382080794 16.1 -92.08182291366842 16.1 -92.08182291366842C16.1 -92.08182291366842 15 -93.30717414466022 15 -93.30717414466022C15 -93.30717414466022 13.8 -94.54877674930373 13.8 -94.54877674930373C13.8 -94.54877674930373 34.9 -91.72917502309043 34.9 -91.72917502309043C34.9 -91.72917502309043 56 -88.94086573173166 56 -88.94086573173166C56 -88.94086573173166 77.2 -86.19135164661226 77.2 -86.19135164661226C77.2 -86.19135164661226 98.3 -83.52664489441331 98.3 -83.52664489441331C98.3 -83.52664489441331 119.4 -80.9531578179531 119.4 -80.9531578179531M199.4 12.809494291643027C199.4 12.809494291643027 200.2 9.165834169371312 200.2 9.165834169371312C200.2 9.165834169371312 200.9 5.605584161125645 200.9 5.605584161125645C200.9 5.605584161125645 201.7 1.972969424879011 201.7 1.972969424879011C201.7 1.972969424879011 202.4 -1.5771079340744052 202.4 -1.5771079340744052C202.4 -1.5771079340744052 203.2 -5.19878786763482 203.2 -5.19878786763482C203.2 -5.19878786763482 190.9 -5.5379765858705525 190.9 -5.5379765858705525C190.9 -5.5379765858705525 178.6 -5.892194790600655 178.6 -5.892194790600655C178.6 -5.892194790600655 166.4 -6.257283916525303 166.4 -6.257283916525303C166.4 -6.257283916525303 154.1 -6.638093169229585 154.1 -6.638093169229585C154.1 -6.638093169229585 141.8 -7.030515531933446 141.8 -7.030515531933446C141.8 -7.030515531933446 144.1 -21.198264170841455 144.1 -21.198264170841455C144.1 -21.198264170841455 146.4 -35.29237116035043 146.4 -35.29237116035043C146.4 -35.29237116035043 148.6 -49.23768833091755 148.6 -49.23768833091755C148.6 -49.23768833091755 150.9 -63.188465353685345 150.9 -63.188465353685345C150.9 -63.188465353685345 153.2 -77.06780380914405 153.2 -77.06780380914405C153.2 -77.06780380914405 173.2 -74.9318287738197 173.2 -74.9318287738197C173.2 -74.9318287738197 193.2 -72.93469036458674 193.2 -72.93469036458674C193.2 -72.93469036458674 213.2 -71.08967071865894 213.2 -71.08967071865894C213.2 -71.08967071865894 233.2 -69.40906241239678 233.2 -69.40906241239678C233.2 -69.40906241239678 253.2 -67.90408107395061 253.2 -67.90408107395061C253.2 -67.90408107395061 250.1 -50.97099742861312 250.1 -50.97099742861312C250.1 -50.97099742861312 247 -33.95721037149606 247 -33.95721037149606C247 -33.95721037149606 244 -16.85690161292296 244 -16.85690161292296C244 -16.85690161292296 240.9 0.32458357063510235 240.9 0.32458357063510235C240.9 0.32458357063510235 237.8 17.59434248784357 237.8 17.59434248784357C237.3 20.583700251805315 235.5 23.038760338115637 232.6 24.96498481360625C229.7 26.901077541830592 226.3 27.920715027776275 222.4 27.939443312332315C222.4 27.939443312332315 209.8 28.003717852120854 209.8 28.003717852120854C209.8 28.003717852120854 191.3 28.108815618669848 191.3 28.108815618669848C191.3 28.108815618669848 172.9 28.226465675309086 172.9 28.226465675309086C172.9 28.226465675309086 154.4 28.35839401792934 154.4 28.35839401792934C154.4 28.35839401792934 136 28.50351467401937 136 28.50351467401937C136 28.50351467401937 136.8 23.90819936429277 136.8 23.90819936429277C136.8 23.90819936429277 137.5 19.405997164107468 137.5 19.405997164107468C137.5 19.405997164107468 138.3 14.826921945865429 138.3 14.826921945865429C138.3 14.826921945865429 139 10.339725033137807 139 10.339725033137807C139 10.339725033137807 139.8 5.776792266278029 139.8 5.776792266278029C139.8 5.776792266278029 141.4 7.073182798413438 141.4 7.073182798413438C141.4 7.073182798413438 142.9 8.363408264441503 142.9 8.363408264441503C142.9 8.363408264441503 144.5 9.73484281699583 144.5 9.73484281699583C144.5 9.73484281699583 146 11.01608422987331 146 11.01608422987331C146 11.01608422987331 147.6 12.294055293719964 147.6 12.294055293719964C147.6 12.294055293719964 158 12.401269726918827 158 12.401269726918827C158 12.401269726918827 168.3 12.505955145533836 168.3 12.505955145533836C168.3 12.505955145533836 178.7 12.609792335002354 178.7 12.609792335002354C178.7 12.609792335002354 189 12.710437198936273 189 12.710437198936273C189 12.710437198936273 199.4 12.809494291643027 199.4 12.809494291643027M189.8 -57.864068096792664C189.8 -57.864068096792664 188.4 -50.58914830289007 188.4 -50.58914830289007C188.4 -50.58914830289007 186.9 -43.38074145382416 186.9 -43.38074145382416C186.9 -43.38074145382416 185.5 -36.06368935662027 185.5 -36.06368935662027C185.5 -36.06368935662027 184 -28.811565583380457 184 -28.811565583380457C184 -28.811565583380457 182.6 -21.4516382423504 182.6 -21.4516382423504C182.6 -21.4516382423504 187.1 -21.24916448150219 187.1 -21.24916448150219C187.1 -21.24916448150219 191.6 -21.049930258658236 191.6 -21.049930258658236C191.6 -21.049930258658236 196.2 -20.849695560290627 196.2 -20.849695560290627C196.2 -20.849695560290627 200.7 -20.657242051952423 200.7 -20.657242051952423C200.7 -20.657242051952423 205.2 -20.468252971546384 205.2 -20.468252971546384C205.2 -20.468252971546384 206.7 -27.66212197278182 206.7 -27.66212197278182C206.7 -27.66212197278182 208.2 -34.756668234984275 208.2 -34.756668234984275C208.2 -34.756668234984275 209.8 -41.903590367918014 209.8 -41.903590367918014C209.8 -41.903590367918014 211.3 -48.957363717776346 211.3 -48.957363717776346C211.3 -48.957363717776346 212.8 -56.06987724827047 212.8 -56.06987724827047C212.8 -56.06987724827047 208.2 -56.414717956214844 208.2 -56.414717956214844C208.2 -56.414717956214844 203.6 -56.76668538405275 203.6 -56.76668538405275C203.6 -56.76668538405275 199 -57.12565275069325 199 -57.12565275069325C199 -57.12565275069325 194.4 -57.49149084876953 194.4 -57.49149084876953C194.4 -57.49149084876953 189.8 -57.864068096792664 189.8 -57.864068096792664M325.6 -93.49812319412288C325.6 -93.49812319412288 324.5 -87.54938008978567 324.5 -87.54938008978567C324.5 -87.54938008978567 323.4 -81.71476743377283 323.4 -81.71476743377283C323.4 -81.71476743377283 322.2 -75.95601238184744 322.2 -75.95601238184744C322.2 -75.95601238184744 321.1 -70.11574354555803 321.1 -70.11574354555803C321.1 -70.11574354555803 320 -64.27071107942312 320 -64.27071107942312C320 -64.27071107942312 332.3 -63.850385130697916 332.3 -63.850385130697916C332.3 -63.850385130697916 344.6 -63.510591619058545 344.6 -63.510591619058545C344.6 -63.510591619058545 356.8 -63.253964494085665 356.8 -63.253964494085665C356.8 -63.253964494085665 369.1 -63.07694978769993 369.1 -63.07694978769993C369.1 -63.07694978769993 381.4 -62.982432808927456 381.4 -62.982432808927456C381.4 -62.982432808927456 379.5 -52.81882816564895 379.5 -52.81882816564895C379.5 -52.81882816564895 377.6 -42.65457132462039 377.6 -42.65457132462039C377.6 -42.65457132462039 375.6 -32.48944925211841 375.6 -32.48944925211841C375.6 -32.48944925211841 373.7 -22.321766086847987 373.7 -22.321766086847987C373.7 -22.321766086847987 371.8 -12.151317572972609 371.8 -12.151317572972609C370.7 -9.35964930775863 368.9 -7.072161823170447 366.2 -5.290048880789897C363.5 -3.507846409234503 360.3 -2.589288990238984 356.4 -2.6091398186909913C356.4 -2.6091398186909913 343.8 -2.6901805594634567 343.8 -2.6901805594634567C343.8 -2.6901805594634567 325.3 -2.8554278308875 325.3 -2.8554278308875C325.3 -2.8554278308875 306.9 -3.0732183195785225 306.9 -3.0732183195785225C306.9 -3.0732183195785225 288.4 -3.3442514005900676 288.4 -3.3442514005900676C288.4 -3.3442514005900676 270 -3.6635598316761673 270 -3.6635598316761673C270 -3.6635598316761673 273.4 -21.358329636600907 273.4 -21.358329636600907C273.4 -21.358329636600907 276.9 -38.969494645085035 276.9 -38.969494645085035C276.9 -38.969494645085035 280.3 -56.507687833763725 280.3 -56.507687833763725C280.3 -56.507687833763725 283.8 -73.96722642982556 283.8 -73.96722642982556C283.8 -73.96722642982556 287.2 -91.39984030046517 287.2 -91.39984030046517C287.2 -91.39984030046517 286.4 -92.36116449306479 286.4 -92.36116449306479C286.4 -92.36116449306479 285.7 -93.24108601604539 285.7 -93.24108601604539C285.7 -93.24108601604539 284.9 -94.20478597560086 284.9 -94.20478597560086C284.9 -94.20478597560086 284.2 -95.08683283085793 284.2 -95.08683283085793C284.2 -95.08683283085793 283.4 -96.05293924302052 283.4 -96.05293924302052C283.4 -96.05293924302052 291.8 -95.44759071910718 291.8 -95.44759071910718C291.8 -95.44759071910718 300.3 -94.88338934877322 300.3 -94.88338934877322C300.3 -94.88338934877322 308.7 -94.37425727287737 308.7 -94.37425727287737C308.7 -94.37425727287737 317.2 -93.90867232192664 317.2 -93.90867232192664C317.2 -93.90867232192664 325.6 -93.49812319412288 325.6 -93.49812319412288M318 -50.376310592207474C318 -50.376310592207474 316.7 -43.72078349792599 316.7 -43.72078349792599C316.7 -43.72078349792599 315.4 -37.05816539391796 315.4 -37.05816539391796C315.4 -37.05816539391796 314 -30.390731906863834 314 -30.390731906863834C314 -30.390731906863834 312.7 -23.71304611779955 312.7 -23.71304611779955C312.7 -23.71304611779955 311.4 -17.027647134695144 311.4 -17.027647134695144C311.4 -17.027647134695144 316 -16.9416460096281 316 -16.9416460096281C316 -16.9416460096281 320.5 -16.862403547557484 320.5 -16.862403547557484C320.5 -16.862403547557484 325.1 -16.786430877479717 325.1 -16.786430877479717C325.1 -16.786430877479717 329.6 -16.71706125541816 329.6 -16.71706125541816C329.6 -16.71706125541816 334.2 -16.651240536201918 334.2 -16.651240536201918C334.2 -16.651240536201918 335.6 -23.280933139797646 335.6 -23.280933139797646C335.6 -23.280933139797646 336.9 -29.906704756353975 336.9 -29.906704756353975C336.9 -29.906704756353975 338.3 -36.525479890673765 338.3 -36.525479890673765C338.3 -36.525479890673765 339.6 -43.141127603133896 339.6 -43.141127603133896C339.6 -43.141127603133896 341 -49.749904532751614 341 -49.749904532751614C341 -49.749904532751614 336.4 -49.85626194101522 336.4 -49.85626194101522C336.4 -49.85626194101522 331.8 -49.972125278602206 331.8 -49.972125278602206C331.8 -49.972125278602206 327.2 -50.09745223832772 327.2 -50.09745223832772C327.2 -50.09745223832772 322.6 -50.23219706849484 322.6 -50.23219706849484C322.6 -50.23219706849484 318 -50.376310592207474 318 -50.376310592207474M465.4 -50.53662155914057C465.4 -50.53662155914057 461.3 -50.399058959697285 461.3 -50.399058959697285C461.3 -50.399058959697285 457.2 -50.26889075154648 457.2 -50.26889075154648C457.2 -50.26889075154648 453.2 -50.1490595175201 453.2 -50.1490595175201C453.2 -50.1490595175201 449.1 -50.03360858466726 449.1 -50.03360858466726C449.1 -50.03360858466726 445 -49.92565798983202 445 -49.92565798983202C445 -49.92565798983202 444.6 -48.83091373859541 444.6 -48.83091373859541C444.6 -48.83091373859541 444.3 -47.73897196279967 444.3 -47.73897196279967C444.3 -47.73897196279967 443.9 -46.57261795541608 443.9 -46.57261795541608C443.9 -46.57261795541608 443.6 -45.48125469838456 443.6 -45.48125469838456C443.6 -45.48125469838456 443.2 -44.38787082195765 443.2 -44.38787082195765C443.2 -44.38787082195765 435.5 -44.224934577235445 435.5 -44.224934577235445C435.5 -44.224934577235445 427.8 -44.08677816824206 427.8 -44.08677816824206C427.8 -44.08677816824206 420.2 -43.974855264322315 420.2 -43.974855264322315C420.2 -43.974855264322315 412.5 -43.88633697088191 412.5 -43.88633697088191C412.5 -43.88633697088191 404.8 -43.82294998730292 404.8 -43.82294998730292C404.8 -43.82294998730292 406 -47.70193882830377 406 -47.70193882830377C406 -47.70193882830377 407.1 -51.510017920220065 407.1 -51.510017920220065C407.1 -51.510017920220065 408.3 -55.39225156791542 408.3 -55.39225156791542C408.3 -55.39225156791542 409.4 -59.20355314977027 409.4 -59.20355314977027C409.4 -59.20355314977027 410.6 -63.08942652670706 410.6 -63.08942652670706C410.6 -63.08942652670706 429.4 -63.4043871280999 429.4 -63.4043871280999C429.4 -63.4043871280999 448.2 -63.910078826673285 448.2 -63.910078826673285C448.2 -63.910078826673285 467 -64.6035011972474 467 -64.6035011972474C467 -64.6035011972474 485.8 -65.48054222373207 485.8 -65.48054222373207C485.8 -65.48054222373207 504.6 -66.53600479378457 504.6 -66.53600479378457C504.6 -66.53600479378457 502.3 -55.227705670302186 502.3 -55.227705670302186C502.3 -55.227705670302186 500 -44.03026385239242 500 -44.03026385239242C500 -44.03026385239242 497.6 -32.79029660597011 497.6 -32.79029660597011C497.6 -32.79029660597011 495.3 -21.66338194395626 495.3 -21.66338194395626C495.3 -21.66338194395626 493 -10.495778868287609 493 -10.495778868287609C493 -10.495778868287609 494.6 -9.121528345296923 494.6 -9.121528345296923C494.6 -9.121528345296923 496.1 -7.742945893631202 496.1 -7.742945893631202C496.1 -7.742945893631202 497.7 -6.2897158778349365 497.7 -6.2897158778349365C497.7 -6.2897158778349365 499.2 -4.9063328024144255 499.2 -4.9063328024144255C499.2 -4.9063328024144255 500.8 -3.5222893168688714 500.8 -3.5222893168688714C500.8 -3.5222893168688714 482.8 -3.2296972896476603 482.8 -3.2296972896476603C482.8 -3.2296972896476603 464.7 -2.9841793513181187 464.7 -2.9841793513181187C464.7 -2.9841793513181187 446.7 -2.790218964067016 446.7 -2.790218964067016C446.7 -2.790218964067016 428.6 -2.6470856811032633 428.6 -2.6470856811032633C428.6 -2.6470856811032633 410.6 -2.5574032149417647 410.6 -2.5574032149417647C406.7 -2.544965100573755 403.8 -3.4689871023998506 401.9 -5.2559309996910315C400 -7.042989838257469 399 -9.33346501319069 399 -12.12738725820634C399 -12.12738725820634 400.2 -14.064581365774345 400.2 -14.064581365774345C400.2 -14.064581365774345 401.3 -20.157855344592306 401.3 -20.157855344592306C401.3 -20.157855344592306 402.5 -26.18123606511066 402.5 -26.18123606511066C402.5 -26.18123606511066 403.6 -32.27743203443249 403.6 -32.27743203443249C403.6 -32.27743203443249 404.8 -38.375869226454256 404.8 -38.375869226454256C404.8 -38.375869226454256 416.3 -38.47140336851655 416.3 -38.47140336851655C416.3 -38.47140336851655 427.8 -38.618367088439996 427.8 -38.618367088439996C427.8 -38.618367088439996 439.4 -38.81835955309782 439.4 -38.81835955309782C439.4 -38.81835955309782 450.9 -39.067463075380445 450.9 -39.067463075380445C450.9 -39.067463075380445 462.4 -39.36659500120125 462.4 -39.36659500120125C462.4 -39.36659500120125 463 -41.568754421393564 463 -41.568754421393564C463 -41.568754421393564 463.6 -43.84509837556337 463.6 -43.84509837556337C463.6 -43.84509837556337 464.2 -46.049941693012414 464.2 -46.049941693012414C464.2 -46.049941693012414 464.8 -48.32903782366216 464.8 -48.32903782366216C464.8 -48.32903782366216 465.4 -50.53662155914057 465.4 -50.53662155914057M439.4 -24.958955192618333C439.4 -24.958955192618333 439 -23.29288936027926 439 -23.29288936027926C439 -23.29288936027926 438.6 -21.62728120641995 438.6 -21.62728120641995C438.6 -21.62728120641995 438.2 -19.88996818240807 438.2 -19.88996818240807C438.2 -19.88996818240807 437.8 -18.22526947048705 437.8 -18.22526947048705C437.8 -18.22526947048705 437.4 -16.56101367447492 437.4 -16.56101367447492C437.4 -16.56101367447492 441.2 -16.60850198384768 441.2 -16.60850198384768C441.2 -16.60850198384768 445.1 -16.66092364783654 445.1 -16.66092364783654C445.1 -16.66092364783654 448.9 -16.71557554652439 448.9 -16.71557554652439C448.9 -16.71557554652439 452.8 -16.775317678630437 452.8 -16.775317678630437C452.8 -16.775317678630437 456.6 -16.837069464659535 456.6 -16.837069464659535C456.6 -16.837069464659535 457 -18.514720209207347 457 -18.514720209207347C457 -18.514720209207347 457.4 -20.192969075413686 457.4 -20.192969075413686C457.4 -20.192969075413686 457.8 -21.944495187444915 457.8 -21.944495187444915C457.8 -21.944495187444915 458.2 -23.62396703978149 458.2 -23.62396703978149C458.2 -23.62396703978149 458.6 -25.30405151571182 458.6 -25.30405151571182C458.6 -25.30405151571182 454.8 -25.22715749409747 454.8 -25.22715749409747C454.8 -25.22715749409747 450.9 -25.152629879631306 450.9 -25.152629879631306C450.9 -25.152629879631306 447.1 -25.084310673470853 447.1 -25.084310673470853C447.1 -25.084310673470853 443.2 -25.018623687325757 443.2 -25.018623687325757C443.2 -25.018623687325757 439.4 -24.958955192618333 439.4 -24.958955192618333M539.2 -77.80540773741532C539.2 -77.80540773741532 538.4 -78.65624527216058 538.4 -78.65624527216058C538.4 -78.65624527216058 537.7 -79.43821844961506 537.7 -79.43821844961506C537.7 -79.43821844961506 536.9 -80.28733199542147 536.9 -80.28733199542147C536.9 -80.28733199542147 536.2 -81.06776388071611 536.2 -81.06776388071611C536.2 -81.06776388071611 535.4 -81.91518744980615 535.4 -81.91518744980615C535.4 -81.91518744980615 543.8 -82.65746016613393 543.8 -82.65746016613393C543.8 -82.65746016613393 552.3 -83.44497687879587 552.3 -83.44497687879587C552.3 -83.44497687879587 560.7 -84.25829559478872 560.7 -84.25829559478872C560.7 -84.25829559478872 569.2 -85.115812853277 569.2 -85.115812853277C569.2 -85.115812853277 577.6 -85.99635904681247 577.6 -85.99635904681247C577.6 -85.99635904681247 577.1 -83.16854266044095 577.1 -83.16854266044095C577.1 -83.16854266044095 576.6 -80.34356651924892 576.6 -80.34356651924892C576.6 -80.34356651924892 576 -77.59081859578964 576 -77.59081859578964C576 -77.59081859578964 575.5 -74.7717499919261 575.5 -74.7717499919261C575.5 -74.7717499919261 575 -71.95549422758288 575 -71.95549422758288C575 -71.95549422758288 579.8 -72.40220354996862 579.8 -72.40220354996862C579.8 -72.40220354996862 584.5 -72.84830006521442 584.5 -72.84830006521442C584.5 -72.84830006521442 589.3 -73.31259479094791 589.3 -73.31259479094791C589.3 -73.31259479094791 594 -73.77557193660492 594 -73.77557193660492C594 -73.77557193660492 598.8 -74.25675449684817 598.8 -74.25675449684817C598.8 -74.25675449684817 598 -71.0989532152273 598 -71.0989532152273C598 -71.0989532152273 597.2 -67.86562818969098 597.2 -67.86562818969098C597.2 -67.86562818969098 596.4 -64.71863787060748 596.4 -64.71863787060748C596.4 -64.71863787060748 595.6 -61.49621395574701 595.6 -61.49621395574701C595.6 -61.49621395574701 594.8 -58.35994431918773 594.8 -58.35994431918773C594.8 -58.35994431918773 590.4 -57.995215374696386 590.4 -57.995215374696386C590.4 -57.995215374696386 585.9 -57.628404445459964 585.9 -57.628404445459964C585.9 -57.628404445459964 581.5 -57.27593438565182 581.5 -57.27593438565182C581.5 -57.27593438565182 577 -56.92190558397979 577 -56.92190558397979C577 -56.92190558397979 572.6 -56.58216878519478 572.6 -56.58216878519478C572.6 -56.58216878519478 571.3 -49.231142333034285 571.3 -49.231142333034285C571.3 -49.231142333034285 570 -41.89880835513415 570 -41.89880835513415C570 -41.89880835513415 568.6 -34.57956346441273 568.6 -34.57956346441273C568.6 -34.57956346441273 567.3 -27.284851161211414 567.3 -27.284851161211414C567.3 -27.284851161211414 566 -20.008339895556766 566 -20.008339895556766C566 -20.008339895556766 569.8 -20.16218221707374 569.8 -20.16218221707374C569.8 -20.16218221707374 573.7 -20.322726597564667 573.7 -20.322726597564667C573.7 -20.322726597564667 577.5 -20.48169636276682 577.5 -20.48169636276682C577.5 -20.48169636276682 581.4 -20.647412527416925 581.4 -20.647412527416925C581.4 -20.647412527416925 585.2 -20.811331961381867 585.2 -20.811331961381867C585.2 -20.811331961381867 584.4 -17.742329711367006 584.4 -17.742329711367006C584.4 -17.742329711367006 583.7 -14.60223337666261 583.7 -14.60223337666261C583.7 -14.60223337666261 582.9 -11.54293540927356 582.9 -11.54293540927356C582.9 -11.54293540927356 582.2 -8.4119822472868 582.2 -8.4119822472868C582.2 -8.4119822472868 581.4 -5.362299529806158 581.4 -5.362299529806158C581.4 -5.362299529806158 573 -5.13444959784006 573 -5.13444959784006C573 -5.13444959784006 564.5 -4.911633083105798 564.5 -4.911633083105798C564.5 -4.911633083105798 556.1 -4.699425170064686 556.1 -4.699425170064686C556.1 -4.699425170064686 547.6 -4.49310076675517 547.6 -4.49310076675517C547.6 -4.49310076675517 539.2 -4.297826095403266 539.2 -4.297826095403266C535.3 -4.210160260141947 532.2 -5.131547891555655 529.8 -6.977192422050706C527.4 -8.816393391892298 526.7 -11.22445464668489 527.6 -14.206783381846734C527.6 -14.206783381846734 528 -18.54334653650279 528 -18.54334653650279C528 -18.54334653650279 529.9 -27.344674957026925 529.9 -27.344674957026925C529.9 -27.344674957026925 531.7 -36.244764467117136 531.7 -36.244764467117136C531.7 -36.244764467117136 533.6 -45.10076918755169 533.6 -45.10076918755169C533.6 -45.10076918755169 535.4 -53.978816064019725 535.4 -53.978816064019725C535.4 -53.978816064019725 532.3 -53.78469747366874 532.3 -53.78469747366874C532.3 -53.78469747366874 529.2 -53.59424717777229 529.2 -53.59424717777229C529.2 -53.59424717777229 526.2 -53.413462671093185 526.2 -53.413462671093185C526.2 -53.413462671093185 523.1 -53.2303215874544 523.1 -53.2303215874544C523.1 -53.2303215874544 520 -53.050940067628105 520 -53.050940067628105C520 -53.050940067628105 520.4 -55.940223451347435 520.4 -55.940223451347435C520.4 -55.940223451347435 520.8 -58.90675683259694 520.8 -58.90675683259694C520.8 -58.90675683259694 521.2 -61.79966413850087 521.2 -61.79966413850087C521.2 -61.79966413850087 521.6 -64.76988169188104 521.6 -64.76988169188104C521.6 -64.76988169188104 522 -67.66644189064534 522 -67.66644189064534C522 -67.66644189064534 525.1 -67.88289625773422 525.1 -67.88289625773422C525.1 -67.88289625773422 528.2 -68.10381752830773 528.2 -68.10381752830773C528.2 -68.10381752830773 531.4 -68.33651299990458 531.4 -68.33651299990458C531.4 -68.33651299990458 534.5 -68.56640199306378 534.5 -68.56640199306378C534.5 -68.56640199306378 537.6 -68.80064803070357 537.6 -68.80064803070357C537.6 -68.80064803070357 537.9 -70.58275134310696 537.9 -70.58275134310696C537.9 -70.58275134310696 538.2 -72.36577611861728 538.2 -72.36577611861728C538.2 -72.36577611861728 538.6 -74.23436727093859 538.6 -74.23436727093859C538.6 -74.23436727093859 538.9 -76.01942299436783 538.9 -76.01942299436783C538.9 -76.01942299436783 539.2 -77.80540773741532 539.2 -77.80540773741532M662 -86.33438571060901C662 -86.33438571060901 654.7 -85.42063735505513 654.7 -85.42063735505513C654.7 -85.42063735505513 647.4 -84.52127692847394 647.4 -84.52127692847394C647.4 -84.52127692847394 640 -83.6250913284504 640 -83.6250913284504C640 -83.6250913284504 632.7 -82.75708771920728 632.7 -82.75708771920728C632.7 -82.75708771920728 625.4 -81.90581307819019 625.4 -81.90581307819019C625.4 -81.90581307819019 625.8 -85.79076707386751 625.8 -85.79076707386751C625.8 -85.79076707386751 626.2 -89.67920319604802 626.2 -89.67920319604802C626.2 -89.67920319604802 626.6 -93.57112746144412 626.6 -93.57112746144412C626.6 -93.57112746144412 627 -97.46654586997974 627 -97.46654586997974C627 -97.46654586997974 627.4 -101.36546440476229 627.4 -101.36546440476229C627.4 -101.36546440476229 635.1 -102.43638658649107 635.1 -102.43638658649107C635.1 -102.43638658649107 642.8 -103.52926062898345 642.8 -103.52926062898345C642.8 -103.52926062898345 650.4 -104.62843627961766 650.4 -104.62843627961766C650.4 -104.62843627961766 658.1 -105.76177449803623 658.1 -105.76177449803623C658.1 -105.76177449803623 665.8 -106.91385058820552 665.8 -106.91385058820552C665.8 -106.91385058820552 665 -102.77742850544959 665 -102.77742850544959C665 -102.77742850544959 664.3 -98.66285447677518 664.3 -98.66285447677518C664.3 -98.66285447677518 663.5 -94.54144167903495 663.5 -94.54144167903495C663.5 -94.54144167903495 662.8 -90.44085696691059 662.8 -90.44085696691059C662.8 -90.44085696691059 662 -86.33438571060901 662 -86.33438571060901M662 -81.28872980961508C662 -81.28872980961508 659.7 -66.35059365770472 659.7 -66.35059365770472C659.7 -66.35059365770472 657.4 -51.492655027173 657.4 -51.492655027173C657.4 -51.492655027173 655 -36.793858397280076 655 -36.793858397280076C655 -36.793858397280076 652.7 -22.09600277625158 652.7 -22.09600277625158C652.7 -22.09600277625158 650.4 -7.476497304467628 650.4 -7.476497304467628C650.4 -7.476497304467628 642.7 -7.222523387582491 642.7 -7.222523387582491C642.7 -7.222523387582491 635 -6.972408228564092 635 -6.972408228564092C635 -6.972408228564092 627.4 -6.729613142791578 627.4 -6.729613142791578C627.4 -6.729613142791578 619.7 -6.488037987078549 619.7 -6.488037987078549C619.7 -6.488037987078549 612 -6.251194374186184 612 -6.251194374186184C612 -6.251194374186184 614.3 -19.340438074022863 614.3 -19.340438074022863C614.3 -19.340438074022863 616.6 -32.41306287463232 616.6 -32.41306287463232C616.6 -32.41306287463232 619 -45.64221041156185 619 -45.64221041156185C619 -45.64221041156185 621.3 -58.8498300307167 621.3 -58.8498300307167C621.3 -58.8498300307167 623.6 -72.208415333963 623.6 -72.208415333963C623.6 -72.208415333963 622.4 -72.99797934814664 622.4 -72.99797934814664C622.4 -72.99797934814664 621.3 -73.79610846218429 621.3 -73.79610846218429C621.3 -73.79610846218429 620.1 -74.66468665814601 620.1 -74.66468665814601C620.1 -74.66468665814601 619 -75.45896571964232 619 -75.45896571964232C619 -75.45896571964232 617.8 -76.24066168634324 617.8 -76.24066168634324C617.8 -76.24066168634324 626.6 -77.20007201713157 626.6 -77.20007201713157C626.6 -77.20007201713157 635.5 -78.194764535998 635.5 -78.194764535998C635.5 -78.194764535998 644.3 -79.20111218375054 644.3 -79.20111218375054C644.3 -79.20111218375054 653.2 -80.24066395849722 653.2 -80.24066395849722C653.2 -80.24066395849722 662 -81.28872980961508 662 -81.28872980961508M742.6 -29.10705289064083C742.6 -29.10705289064083 743 -31.71870218181646 743 -31.71870218181646C743 -31.71870218181646 743.3 -34.32641072432146 743.3 -34.32641072432146C743.3 -34.32641072432146 743.7 -36.846773306196695 743.7 -36.846773306196695C743.7 -36.846773306196695 744 -39.45848814516205 744 -39.45848814516205C744 -39.45848814516205 744.4 -42.07941795049368 744.4 -42.07941795049368C744.4 -42.07941795049368 732.9 -41.236276627671245 732.9 -41.236276627671245C732.9 -41.236276627671245 721.4 -40.3984400788833 721.4 -40.3984400788833C721.4 -40.3984400788833 709.8 -39.56058281595017 709.8 -39.56058281595017C709.8 -39.56058281595017 698.3 -38.73902131552741 698.3 -38.73902131552741C698.3 -38.73902131552741 686.8 -37.9283476565228 686.8 -37.9283476565228C686.8 -37.9283476565228 688.4 -47.37621108619288 688.4 -47.37621108619288C688.4 -47.37621108619288 689.9 -56.760984343671296 689.9 -56.760984343671296C689.9 -56.760984343671296 691.5 -66.27988636904932 691.5 -66.27988636904932C691.5 -66.27988636904932 693 -75.73334535426318 693 -75.73334535426318C693 -75.73334535426318 694.6 -85.32380298072943 694.6 -85.32380298072943C694.6 -85.32380298072943 713 -87.68812204877933 713 -87.68812204877933C713 -87.68812204877933 731.4 -90.09864966973618 731.4 -90.09864966973618C731.4 -90.09864966973618 749.8 -92.54200773955661 749.8 -92.54200773955661C749.8 -92.54200773955661 768.2 -95.0046678091627 768.2 -95.0046678091627C768.2 -95.0046678091627 786.6 -97.47302709141458 786.6 -97.47302709141458C786.6 -97.47302709141458 785.8 -92.32370713631624 785.8 -92.32370713631624C785.8 -92.32370713631624 785.1 -87.29672375796059 785.1 -87.29672375796059C785.1 -87.29672375796059 784.3 -82.16540140940575 784.3 -82.16540140940575C784.3 -82.16540140940575 783.6 -77.15508698598984 783.6 -77.15508698598984C783.6 -77.15508698598984 782.8 -72.04176337127672 782.8 -72.04176337127672C782.8 -72.04176337127672 776.2 -71.34747279235565 776.2 -71.34747279235565C776.2 -71.34747279235565 769.5 -70.64238239897757 769.5 -70.64238239897757C769.5 -70.64238239897757 762.9 -69.94803930444493 762.9 -69.94803930444493C762.9 -69.94803930444493 756.2 -69.24391340845649 756.2 -69.24391340845649C756.2 -69.24391340845649 749.6 -68.55152431805602 749.6 -68.55152431805602C749.6 -68.55152431805602 749.7 -69.62504087873992 749.7 -69.62504087873992C749.7 -69.62504087873992 749.8 -70.69881189616254 749.8 -70.69881189616254C749.8 -70.69881189616254 750 -71.88037331001257 750 -71.88037331001257C750 -71.88037331001257 750.1 -72.95479232501239 750.1 -72.95479232501239C750.1 -72.95479232501239 750.2 -74.02946587794244 750.2 -74.02946587794244C750.2 -74.02946587794244 745.6 -73.51804560193693 745.6 -73.51804560193693C745.6 -73.51804560193693 741 -73.00769943322513 741 -73.00769943322513C741 -73.00769943322513 736.4 -72.4986047411824 736.4 -72.4986047411824C736.4 -72.4986047411824 731.8 -71.99093866085725 731.8 -71.99093866085725C731.8 -71.99093866085725 727.2 -71.4848780295281 727.2 -71.4848780295281C727.2 -71.4848780295281 726.8 -68.9024679080037 726.8 -68.9024679080037C726.8 -68.9024679080037 726.4 -66.32251887143065 726.4 -66.32251887143065C726.4 -66.32251887143065 726 -63.838956931075856 726 -63.838956931075856C726 -63.838956931075856 725.6 -61.263880628876564 725.6 -61.263880628876564C725.6 -61.263880628876564 725.2 -58.69126125684187 725.2 -58.69126125684187C725.2 -58.69126125684187 736.4 -59.753726719673566 736.4 -59.753726719673566C736.4 -59.753726719673566 747.5 -60.81345597879228 747.5 -60.81345597879228C747.5 -60.81345597879228 758.7 -61.88734688882151 758.7 -61.88734688882151C758.7 -61.88734688882151 769.8 -62.95405195723177 769.8 -62.95405195723177C769.8 -62.95405195723177 781 -64.03059810806381 781 -64.03059810806381C781 -64.03059810806381 780.2 -56.23934949056728 780.2 -56.23934949056728C780.2 -56.23934949056728 779.4 -48.46248401946809 779.4 -48.46248401946809C779.4 -48.46248401946809 778.6 -40.8 778.6 -40.8C778.6 -40.8 777.8 -33.05180200345593 777.8 -33.05180200345593C777.8 -33.05180200345593 777 -25.317981183076718 777 -25.317981183076718C776.1 -21.38321115859135 773.9 -18.09790391592483 770.6 -15.479119680730292C767.3 -12.879404153748972 763.7 -11.46756789681072 759.8 -11.327663075176012C759.8 -11.327663075176012 749.1 -10.943124854629367 749.1 -10.943124854629367C749.1 -10.943124854629367 732.6 -10.349571039262607 732.6 -10.349571039262607C732.6 -10.349571039262607 716 -9.754226724375918 716 -9.754226724375918C716 -9.754226724375918 699.5 -9.167147738297018 699.5 -9.167147738297018C699.5 -9.167147738297018 683 -8.587655004271028 683 -8.587655004271028C683 -8.587655004271028 683.8 -13.4363334217254 683.8 -13.4363334217254C683.8 -13.4363334217254 684.5 -18.20027588787351 684.5 -18.20027588787351C684.5 -18.20027588787351 685.3 -23.06681856138323 685.3 -23.06681856138323C685.3 -23.06681856138323 686 -27.847345470570943 686 -27.847345470570943C686 -27.847345470570943 686.8 -32.73182168934489 686.8 -32.73182168934489C686.8 -32.73182168934489 688 -31.462508816263615 688 -31.462508816263615C688 -31.462508816263615 689.1 -30.183370543049456 689.1 -30.183370543049456C689.1 -30.183370543049456 690.3 -28.816715112719116 690.3 -28.816715112719116C690.3 -28.816715112719116 691.4 -27.53036825888902 691.4 -27.53036825888902C691.4 -27.53036825888902 692.6 -26.246133954933526 692.6 -26.246133954933526C692.6 -26.246133954933526 702.6 -26.809078616886957 702.6 -26.809078616886957C702.6 -26.809078616886957 712.6 -27.37762681707742 712.6 -27.37762681707742C712.6 -27.37762681707742 722.6 -27.950794385736017 722.6 -27.950794385736017C722.6 -27.950794385736017 732.6 -28.52759715435689 732.6 -28.52759715435689C732.6 -28.52759715435689 742.6 -29.10705289064083 742.6 -29.10705289064083" style="stroke-width: 0;" fill="#000000" id="masknamepathdata" stroke="#000000" paint-order="stroke" transform="matrix(1,0,0,1,0,0)"/></mask>
          
          </defs>
        </g>
        </svg>